<?xml version="1.0" encoding="utf-8"?>
<!-- Generator: Adobe Illustrator 22.1.0, SVG Export Plug-In . SVG Version: 6.00 Build 0)  -->
<svg version="1.1" id="Ebene_1" xmlns="http://www.w3.org/2000/svg" xmlns:xlink="http://www.w3.org/1999/xlink" x="0px" y="0px"
	 viewBox="0 0 2208 345.2" style="enable-background:new 0 0 2208 345.2;" xml:space="preserve">
<style type="text/css">
	.st0{fill:#1D436F;}
</style>
<path class="st0" d="M1054.9,266.8c0,3.6-0.4,7-1.3,10.1c-0.9,3.2-2.2,6-4,8.5c-1.8,2.5-4,4.7-6.7,6.5c-2.7,1.8-5.8,3.3-9.4,4.3
	c-2.1,0.6-4.3,1-6.7,1.2c-2.4,0.2-5,0.3-7.8,0.3h-13.9v-61.5h14.1c2.8,0,5.4,0.1,7.8,0.3c2.4,0.2,4.6,0.6,6.7,1.2
	c3.6,1,6.7,2.4,9.4,4.2c2.7,1.8,4.9,3.9,6.7,6.4s3.1,5.2,4,8.3C1054.5,259.9,1054.9,263.2,1054.9,266.8z M1047.5,266.8
	c0-5.9-1.3-10.7-3.9-14.4c-2.6-3.7-6.3-6.3-11.2-7.8c-1.9-0.6-3.9-1-6.2-1.2c-2.3-0.2-4.9-0.3-7.8-0.3h-5.7V291h5.7
	c2.9,0,5.5-0.1,7.8-0.3c2.3-0.2,4.4-0.6,6.2-1.2c4.9-1.5,8.6-4.2,11.2-8C1046.2,277.6,1047.5,272.8,1047.5,266.8z M1067.6,244v-7.9
	h7.1v7.9H1067.6z M1067.8,297.8v-43.6h7.1v43.6H1067.8z M1109.9,292.7c2.4,0,4.5-0.2,6.5-0.6c1.9-0.4,3.9-0.9,5.8-1.6v5.9
	c-1.6,0.8-3.5,1.4-5.8,1.8c-2.3,0.4-4.8,0.7-7.4,0.7c-3.1,0-6.1-0.4-8.8-1.2s-5.1-2.1-7.1-3.9c-2-1.8-3.6-4.1-4.7-7
	c-1.1-2.9-1.7-6.3-1.7-10.4c0-4,0.5-7.4,1.6-10.4c1.1-2.9,2.6-5.4,4.4-7.3c1.8-2,3.9-3.4,6.3-4.4c2.4-1,4.9-1.5,7.5-1.5
	c2.4,0,4.7,0.4,6.8,1.2c2.1,0.8,4,2.1,5.5,3.8s2.8,4,3.7,6.8c0.9,2.8,1.4,6.1,1.4,9.9c0,0.4,0,0.7,0,0.9c0,0.3,0,0.8,0,1.8h-30.1
	c0,2.8,0.4,5.2,1.3,7.1c0.8,1.9,2,3.5,3.4,4.7c1.5,1.2,3.2,2.1,5.1,2.6C1105.5,292.5,1107.6,292.7,1109.9,292.7z M1106.1,259.1
	c-1.6,0-3.2,0.3-4.6,1c-1.4,0.6-2.6,1.5-3.7,2.6c-1.1,1.1-1.9,2.4-2.6,3.9c-0.7,1.5-1.1,3.1-1.2,4.8h22.3c0-1.7-0.2-3.3-0.7-4.8
	c-0.4-1.5-1.1-2.8-2-3.9c-0.9-1.1-1.9-2-3.2-2.6C1109.3,259.4,1107.8,259.1,1106.1,259.1z M1188.3,297.8h-3.4l-15.5-36.7
	c-2.1-5.1-4.3-10.5-6.4-16.5h-0.4c0.4,8.5,0.6,16.4,0.6,23.5v29.7h-7.5v-61.5h10.8l14.5,34.8c1.7,4,3.5,8.8,5.5,14.4h0.2
	c2.2-6.2,4-11,5.5-14.4l14.5-34.8h10.8v61.5h-7.5v-29.7c0-7,0.2-14.8,0.6-23.5h-0.4c-2.3,6.3-4.4,11.8-6.4,16.5L1188.3,297.8z
	 M1252.8,292.7c2.4,0,4.5-0.2,6.5-0.6s3.9-0.9,5.8-1.6v5.9c-1.6,0.8-3.5,1.4-5.8,1.8c-2.3,0.4-4.8,0.7-7.4,0.7
	c-3.1,0-6.1-0.4-8.8-1.2s-5.1-2.1-7.1-3.9c-2-1.8-3.6-4.1-4.7-7c-1.1-2.9-1.7-6.3-1.7-10.4c0-4,0.6-7.4,1.6-10.4
	c1.1-2.9,2.6-5.4,4.4-7.3c1.8-2,3.9-3.4,6.3-4.4c2.4-1,4.9-1.5,7.5-1.5c2.4,0,4.7,0.4,6.8,1.2c2.1,0.8,4,2.1,5.5,3.8
	c1.6,1.7,2.8,4,3.7,6.8c0.9,2.8,1.4,6.1,1.4,9.9c0,0.4,0,0.7,0,0.9c0,0.3,0,0.8,0,1.8h-30.1c0,2.8,0.4,5.2,1.3,7.1
	c0.8,1.9,2,3.5,3.4,4.7c1.5,1.2,3.2,2.1,5.1,2.6C1248.4,292.5,1250.5,292.7,1252.8,292.7z M1249,259.1c-1.6,0-3.2,0.3-4.6,1
	c-1.4,0.6-2.6,1.5-3.7,2.6s-1.9,2.4-2.6,3.9c-0.7,1.5-1.1,3.1-1.2,4.8h22.3c0-1.7-0.2-3.3-0.7-4.8c-0.4-1.5-1.1-2.8-2-3.9
	c-0.9-1.1-1.9-2-3.2-2.6S1250.7,259.1,1249,259.1z M1299.6,292.7c2.4,0,4.5-0.2,6.5-0.6c1.9-0.4,3.9-0.9,5.8-1.6v5.9
	c-1.6,0.8-3.5,1.4-5.8,1.8c-2.3,0.4-4.8,0.7-7.4,0.7c-3.1,0-6.1-0.4-8.8-1.2s-5.1-2.1-7.1-3.9c-2-1.8-3.6-4.1-4.7-7
	c-1.1-2.9-1.7-6.3-1.7-10.4c0-4,0.5-7.4,1.6-10.4c1.1-2.9,2.6-5.4,4.4-7.3c1.8-2,3.9-3.4,6.3-4.4c2.4-1,4.9-1.5,7.5-1.5
	c2.4,0,4.7,0.4,6.8,1.2s4,2.1,5.5,3.8c1.6,1.7,2.8,4,3.7,6.8c0.9,2.8,1.4,6.1,1.4,9.9c0,0.4,0,0.7,0,0.9c0,0.3,0,0.8,0,1.8h-30.1
	c0,2.8,0.4,5.2,1.3,7.1c0.8,1.9,2,3.5,3.4,4.7s3.2,2.1,5.1,2.6C1295.2,292.5,1297.3,292.7,1299.6,292.7z M1295.8,259.1
	c-1.6,0-3.2,0.3-4.6,1c-1.4,0.6-2.6,1.5-3.7,2.6c-1.1,1.1-1.9,2.4-2.6,3.9c-0.7,1.5-1.1,3.1-1.2,4.8h22.3c0-1.7-0.2-3.3-0.7-4.8
	c-0.5-1.5-1.1-2.8-2-3.9s-1.9-2-3.2-2.6C1299,259.4,1297.5,259.1,1295.8,259.1z M1349.6,259.9h-0.6c-1.7,0-3.3,0.2-5,0.5
	c-1.6,0.3-3.1,0.8-4.6,1.4c-1.4,0.6-2.7,1.4-3.9,2.3s-2.1,2-2.9,3.3v30.4h-7.1v-43.6h5.5l1.4,6.9h0.1c0.7-1.1,1.6-2.2,2.6-3.2
	c1-1,2.2-1.8,3.5-2.6c1.3-0.7,2.7-1.3,4.2-1.7c1.5-0.4,3.1-0.6,4.8-0.6c0.3,0,0.6,0,0.9,0c0.3,0,0.6,0,0.8,0.1V259.9z M1377.9,292.7
	c2.4,0,4.5-0.2,6.5-0.6c1.9-0.4,3.9-0.9,5.8-1.6v5.9c-1.6,0.8-3.5,1.4-5.8,1.8c-2.3,0.4-4.8,0.7-7.4,0.7c-3.1,0-6.1-0.4-8.8-1.2
	c-2.7-0.8-5.1-2.1-7.1-3.9c-2-1.8-3.6-4.1-4.7-7c-1.1-2.9-1.7-6.3-1.7-10.4c0-4,0.5-7.4,1.6-10.4c1.1-2.9,2.6-5.4,4.4-7.3
	c1.8-2,3.9-3.4,6.3-4.4c2.4-1,4.9-1.5,7.5-1.5c2.4,0,4.7,0.4,6.8,1.2s4,2.1,5.5,3.8s2.8,4,3.7,6.8c0.9,2.8,1.4,6.1,1.4,9.9
	c0,0.4,0,0.7,0,0.9c0,0.3,0,0.8,0,1.8h-30.1c0,2.8,0.4,5.2,1.3,7.1c0.8,1.9,2,3.5,3.4,4.7c1.5,1.2,3.2,2.1,5.1,2.6
	C1373.5,292.5,1375.6,292.7,1377.9,292.7z M1374.1,259.1c-1.6,0-3.2,0.3-4.6,1c-1.4,0.6-2.6,1.5-3.7,2.6s-1.9,2.4-2.6,3.9
	c-0.7,1.5-1.1,3.1-1.2,4.8h22.3c0-1.7-0.2-3.3-0.7-4.8c-0.5-1.5-1.1-2.8-2-3.9s-1.9-2-3.2-2.6S1375.8,259.1,1374.1,259.1z
	 M1409.1,265.8c0,1.2,0.3,2.2,0.8,2.9c0.5,0.8,1.2,1.4,2,1.9c0.9,0.5,1.8,0.9,3,1.2c1.1,0.3,2.3,0.6,3.5,0.8
	c1.6,0.4,3.2,0.8,4.7,1.2c1.5,0.4,2.8,1.1,4.1,2c1.2,0.9,2.2,2.1,3,3.6c0.8,1.5,1.1,3.5,1.1,5.9c0,2.2-0.4,4.2-1.3,5.9
	s-2.1,3.1-3.6,4.3s-3.4,2-5.6,2.6c-2.2,0.6-4.6,0.9-7.2,0.9c-1.6,0-3-0.1-4.3-0.3c-1.3-0.2-2.5-0.4-3.4-0.6s-1.8-0.5-2.5-0.8
	c-0.7-0.3-1.3-0.5-1.7-0.8v-6c1.8,0.7,3.6,1.3,5.4,1.7c1.8,0.4,3.7,0.6,5.9,0.6c1.7,0,3.2-0.2,4.6-0.5c1.4-0.3,2.5-0.8,3.5-1.4
	c1-0.6,1.7-1.3,2.3-2.3c0.5-0.9,0.8-2,0.8-3.1c0-1.2-0.2-2.2-0.7-3c-0.5-0.8-1.1-1.5-1.9-2c-0.8-0.5-1.8-0.9-2.8-1.3
	c-1.1-0.3-2.2-0.6-3.4-0.9c-1.5-0.3-3.1-0.7-4.7-1.2s-3-1.1-4.3-1.9c-1.3-0.8-2.3-2-3.1-3.4c-0.8-1.4-1.2-3.3-1.2-5.5
	c0-2.3,0.4-4.3,1.2-6s1.9-3.1,3.4-4.2c1.4-1.1,3-1.9,4.9-2.5c1.9-0.6,3.8-0.8,5.9-0.8c2.4,0,4.7,0.2,6.7,0.7c2.1,0.5,3.9,1,5.6,1.7
	v6.1c-1.8-0.7-3.6-1.3-5.4-1.7c-1.8-0.4-3.7-0.7-5.7-0.7c-1.6,0-3,0.2-4.2,0.5c-1.2,0.3-2.1,0.8-2.9,1.4c-0.7,0.6-1.3,1.3-1.6,2.1
	C1409.3,263.9,1409.1,264.8,1409.1,265.8z M1447.1,265.8c0,1.2,0.3,2.2,0.8,2.9c0.5,0.8,1.2,1.4,2,1.9c0.9,0.5,1.8,0.9,3,1.2
	c1.1,0.3,2.3,0.6,3.5,0.8c1.6,0.4,3.2,0.8,4.7,1.2c1.5,0.4,2.8,1.1,4.1,2c1.2,0.9,2.2,2.1,3,3.6c0.8,1.5,1.1,3.5,1.1,5.9
	c0,2.2-0.4,4.2-1.3,5.9s-2.1,3.1-3.6,4.3s-3.4,2-5.6,2.6c-2.2,0.6-4.6,0.9-7.2,0.9c-1.6,0-3-0.1-4.3-0.3c-1.3-0.2-2.5-0.4-3.4-0.6
	s-1.8-0.5-2.5-0.8c-0.7-0.3-1.3-0.5-1.7-0.8v-6c1.8,0.7,3.6,1.3,5.4,1.7c1.8,0.4,3.7,0.6,5.9,0.6c1.7,0,3.2-0.2,4.6-0.5
	c1.4-0.3,2.5-0.8,3.5-1.4c1-0.6,1.7-1.3,2.3-2.3c0.5-0.9,0.8-2,0.8-3.1c0-1.2-0.2-2.2-0.7-3c-0.5-0.8-1.1-1.5-1.9-2
	c-0.8-0.5-1.8-0.9-2.8-1.3c-1.1-0.3-2.2-0.6-3.4-0.9c-1.5-0.3-3.1-0.7-4.7-1.2s-3-1.1-4.3-1.9c-1.3-0.8-2.3-2-3.1-3.4
	c-0.8-1.4-1.2-3.3-1.2-5.5c0-2.3,0.4-4.3,1.2-6s1.9-3.1,3.4-4.2c1.4-1.1,3-1.9,4.9-2.5c1.9-0.6,3.8-0.8,5.9-0.8
	c2.4,0,4.7,0.2,6.7,0.7c2.1,0.5,3.9,1,5.6,1.7v6.1c-1.8-0.7-3.6-1.3-5.4-1.7c-1.8-0.4-3.7-0.7-5.7-0.7c-1.6,0-3,0.2-4.2,0.5
	c-1.2,0.3-2.1,0.8-2.9,1.4c-0.7,0.6-1.3,1.3-1.6,2.1C1447.3,263.9,1447.1,264.8,1447.1,265.8z M1498.8,253c2.1,0,4.1,0.2,6.1,0.7
	c1.9,0.4,3.6,1.1,5,1.9v5.9c-1.9-0.7-3.7-1.3-5.3-1.7s-3.3-0.6-5-0.6c-1.8,0-3.5,0.3-5.3,0.9c-1.7,0.6-3.3,1.5-4.7,2.9
	s-2.5,3.1-3.3,5.3c-0.8,2.2-1.3,4.9-1.3,8.2c0,2.4,0.3,4.5,0.9,6.5c0.6,2,1.6,3.7,2.8,5.2s2.8,2.6,4.7,3.4c1.9,0.8,4,1.2,6.5,1.2
	c1.8,0,3.6-0.2,5.4-0.6c1.8-0.4,3.6-0.9,5.3-1.6v5.9c-0.5,0.3-1.2,0.6-2,0.9c-0.8,0.3-1.8,0.6-2.8,0.8c-1,0.2-2.1,0.4-3.2,0.6
	s-2.3,0.2-3.4,0.2c-2.9,0-5.7-0.4-8.3-1.3c-2.6-0.9-4.9-2.3-6.9-4.1c-2-1.8-3.5-4.2-4.6-7c-1.1-2.8-1.7-6.2-1.7-10
	c0-2.9,0.3-5.5,0.9-7.8c0.6-2.3,1.4-4.3,2.5-6.1s2.3-3.2,3.7-4.5s2.9-2.2,4.5-3c1.6-0.8,3.2-1.3,4.9-1.7
	C1495.6,253.2,1497.2,253,1498.8,253z M1528.9,260.1h0.1c0.8-1,1.7-2,2.7-2.8c1-0.9,2.1-1.6,3.3-2.3c1.2-0.6,2.5-1.1,3.9-1.5
	s2.9-0.6,4.5-0.6c1.7,0,3.3,0.2,5,0.7c1.7,0.4,3.2,1.2,4.6,2.4s2.6,2.7,3.4,4.7c0.9,2,1.3,4.6,1.3,7.8v29.2h-7.1v-28.1
	c0-3.5-0.7-6.2-2-7.9c-1.3-1.8-3.5-2.7-6.5-2.7c-2.5,0-4.9,0.7-7.2,2c-2.3,1.4-4.2,3.2-5.9,5.6v31h-7.1v-66.5h7.1V260.1z
	 M1588.7,298.9c-2.3,0-4.3-0.2-6.1-0.7s-3.4-1.2-4.8-2.1c-1.4-0.9-2.5-2-3.5-3.2c-0.9-1.2-1.7-2.6-2.3-4.1c-0.4-1.1-0.7-2.3-0.9-3.6
	c-0.2-1.3-0.3-2.8-0.3-4.3v-26.8h7.1v26.7c0,2.4,0.3,4.4,1,6.1c0.7,1.8,1.9,3.3,3.6,4.3c1.6,1.1,3.7,1.6,6.3,1.6
	c2.7,0,4.9-0.6,6.5-1.7c1.6-1.2,2.8-2.7,3.5-4.7c0.5-1.5,0.8-3.4,0.8-5.6v-26.7h7.1V281c0,1.5-0.1,2.8-0.3,4.1
	c-0.2,1.3-0.4,2.4-0.8,3.5c-0.6,1.5-1.3,2.9-2.3,4.2c-1,1.3-2.2,2.4-3.6,3.3c-1.4,0.9-3,1.6-4.9,2.1
	C1593.1,298.7,1591,298.9,1588.7,298.9z M1643,297.9c-0.6,0.2-1.5,0.5-2.8,0.7c-1.3,0.2-2.8,0.3-4.5,0.4c-2.3,0-4.3-0.3-6-0.8
	s-3.1-1.4-4.2-2.4c-1.1-1.1-2-2.3-2.5-3.8c-0.6-1.5-0.8-3.2-0.8-5v-26.5h-8.4v-6.1h8.4v-11.9h7.1v11.9h13v6.1h-13v25.4
	c0,1,0.1,1.9,0.4,2.8c0.3,0.9,0.8,1.6,1.4,2.2c0.6,0.6,1.4,1.1,2.4,1.5c1,0.4,2.2,0.5,3.5,0.5c0.9,0,2-0.1,3-0.2
	c1.1-0.2,2-0.4,2.9-0.6V297.9z M1673.7,260.4v-0.2h-24v-6.1h33v4.5l-24.3,32.8v0.2h25.9v6.1H1649v-3.9L1673.7,260.4z M1733.4,276
	c0,3.4-0.5,6.6-1.5,9.4c-1,2.8-2.4,5.2-4.2,7.2c-1.8,2-4,3.6-6.5,4.7c-2.5,1.1-5.4,1.7-8.5,1.7c-3.2,0-6.1-0.6-8.7-1.7
	c-2.6-1.1-4.7-2.7-6.5-4.7c-1.8-2-3.2-4.4-4.1-7.2c-0.9-2.8-1.4-5.9-1.4-9.4c0-3.5,0.5-6.6,1.5-9.4c1-2.8,2.4-5.2,4.2-7.3
	c1.8-2,4-3.6,6.5-4.7c2.6-1.1,5.4-1.7,8.6-1.7c3.2,0,6.1,0.6,8.7,1.7c2.6,1.1,4.7,2.7,6.5,4.7c1.8,2,3.1,4.4,4.1,7.3
	S1733.4,272.6,1733.4,276z M1726,276c0-2.7-0.3-5.1-1-7.2c-0.7-2.1-1.6-3.9-2.8-5.3c-1.2-1.5-2.6-2.6-4.2-3.3
	c-1.6-0.8-3.4-1.1-5.3-1.1s-3.7,0.4-5.3,1.1c-1.6,0.8-3,1.9-4.2,3.3c-1.2,1.5-2.1,3.2-2.8,5.3s-1,4.5-1,7.2c0,2.7,0.3,5,1,7.1
	s1.6,3.9,2.8,5.3c1.2,1.4,2.6,2.5,4.2,3.3c1.6,0.8,3.4,1.1,5.3,1.1s3.7-0.4,5.3-1.1c1.6-0.8,3-1.8,4.2-3.3s2.1-3.2,2.8-5.3
	C1725.6,281.1,1726,278.7,1726,276z M1768.6,259.9h-0.6c-1.7,0-3.3,0.2-5,0.5c-1.6,0.3-3.1,0.8-4.6,1.4c-1.4,0.6-2.7,1.4-3.9,2.3
	s-2.1,2-2.9,3.3v30.4h-7.1v-43.6h5.5l1.4,6.9h0.1c0.7-1.1,1.6-2.2,2.6-3.2c1-1,2.2-1.8,3.5-2.6c1.3-0.7,2.7-1.3,4.2-1.7
	c1.5-0.4,3.1-0.6,4.8-0.6c0.3,0,0.6,0,0.9,0c0.3,0,0.6,0,0.8,0.1V259.9z M1793.1,253c1.9,0,3.6,0.3,5,0.7c1.4,0.5,2.6,1,3.6,1.7
	c1,0.7,1.8,1.4,2.4,2c0.6,0.7,1,1.2,1.2,1.6h0.2l1.5-5h5.4v46.2c0,3.4-0.6,6.3-1.7,8.8c-1.1,2.5-2.6,4.6-4.6,6.2s-4.4,2.9-7.2,3.7
	c-2.8,0.8-5.9,1.2-9.3,1.2c-2.9,0-5.5-0.3-7.7-0.8c-2.3-0.5-4-1.1-5.3-1.8v-6c1,0.4,2.1,0.8,3,1.1c1,0.3,2,0.5,3,0.7
	s2.1,0.3,3.2,0.4c1.1,0.1,2.3,0.1,3.6,0.1c5.1,0,9-1.2,11.8-3.6c2.7-2.4,4.1-6,4.1-10.9v-5.8h-0.1c-1.6,1.7-3.4,3-5.4,3.9
	c-2.1,0.9-4.4,1.3-7.1,1.3c-1.2,0-2.5-0.1-4-0.4c-1.4-0.3-2.8-0.7-4.2-1.4c-1.4-0.7-2.8-1.5-4-2.6c-1.3-1.1-2.4-2.4-3.4-4.1
	c-1-1.6-1.8-3.6-2.4-5.8c-0.6-2.2-0.9-4.8-0.9-7.8c0-4.1,0.6-7.6,1.7-10.6s2.6-5.5,4.4-7.4c1.8-2,3.9-3.4,6.2-4.4
	S1790.6,253,1793.1,253z M1781.1,276.2c0,3.4,0.4,6.2,1.2,8.4c0.8,2.2,1.9,3.9,3.1,5.1c1.3,1.2,2.7,2,4.2,2.5
	c1.5,0.4,2.9,0.7,4.3,0.7c2.2,0,4.3-0.4,6.2-1.3s3.6-2.1,5.1-3.6v-22.8c-0.4-0.6-1-1.2-1.7-1.9c-0.7-0.7-1.5-1.4-2.5-2
	c-0.9-0.6-2-1.1-3.2-1.5c-1.2-0.4-2.5-0.6-3.9-0.6c-2.1,0-4,0.4-5.6,1.3c-1.6,0.8-3,2-4,3.5c-1.1,1.5-1.9,3.3-2.5,5.4
	C1781.3,271.4,1781.1,273.7,1781.1,276.2z M1851.6,293h-0.2c-0.6,0.7-1.3,1.5-2.2,2.2c-0.9,0.7-1.9,1.4-3.1,1.9
	c-1.2,0.6-2.4,1-3.8,1.4s-2.8,0.5-4.4,0.5c-2.1,0-4-0.3-5.8-0.9c-1.8-0.6-3.3-1.5-4.5-2.8c-1.3-1.2-2.3-2.7-3-4.4
	c-0.7-1.7-1.1-3.7-1.1-5.9c0-2.2,0.4-4.1,1.2-5.8c0.8-1.7,1.9-3.2,3.3-4.4c1.4-1.2,3.1-2.1,5.1-2.8c2-0.6,4.2-1,6.5-1
	c2.3,0,4.4,0.2,6.3,0.6c1.9,0.4,3.6,0.8,5.1,1.4h0.2v-3c0-1.2-0.1-2.3-0.2-3.2c-0.2-0.9-0.4-1.7-0.8-2.4c-0.8-1.5-2.1-2.7-3.8-3.7
	c-1.7-1-4.1-1.4-7.1-1.4c-2.2,0-4.3,0.2-6.2,0.6c-1.9,0.4-3.9,1-5.8,1.7v-6c0.7-0.4,1.6-0.7,2.6-1c1-0.3,2-0.6,3.1-0.8
	c1.1-0.2,2.3-0.4,3.5-0.5c1.2-0.1,2.4-0.2,3.7-0.2c4.4,0,8,0.8,10.8,2.3s4.8,3.6,6,6.2c0.5,1,0.8,2.1,1,3.2s0.3,2.5,0.3,3.9v29.1h-6
	L1851.6,293z M1851.2,278.6c-1.3-0.4-2.9-0.7-4.7-1.1c-1.8-0.3-3.8-0.5-5.9-0.6c-3,0-5.4,0.6-7.1,1.9s-2.6,3.3-2.6,5.9
	c0,1.3,0.2,2.5,0.6,3.5c0.4,1,1,1.8,1.8,2.5c0.7,0.7,1.6,1.1,2.7,1.5c1,0.3,2.1,0.5,3.3,0.5c1.5,0,2.9-0.2,4.3-0.7
	c1.3-0.4,2.5-1,3.5-1.6c1-0.6,1.9-1.2,2.6-1.8c0.7-0.6,1.2-1.1,1.6-1.4V278.6z M1879,260.2h0.1c0.8-1,1.7-2,2.6-2.8
	c1-0.9,2-1.6,3.2-2.3c1.2-0.7,2.5-1.2,3.9-1.5s3-0.6,4.7-0.6c2,0,3.9,0.3,5.6,0.8s3.3,1.4,4.5,2.7s2.3,2.8,3.1,4.8
	c0.8,2,1.1,4.4,1.1,7.3v29.2h-7.1v-28.1c0-3.8-0.7-6.5-2.2-8.1s-3.6-2.5-6.4-2.5c-2.4,0-4.8,0.7-7.1,2c-2.3,1.4-4.3,3.2-5.9,5.6v31
	h-7.1v-43.6h5.5L1879,260.2z M1922,244v-7.9h7.1v7.9H1922z M1922.2,297.8v-43.6h7.1v43.6H1922.2z M1948.7,265.8
	c0,1.2,0.3,2.2,0.8,2.9c0.5,0.8,1.2,1.4,2,1.9c0.9,0.5,1.8,0.9,3,1.2c1.1,0.3,2.3,0.6,3.5,0.8c1.6,0.4,3.2,0.8,4.7,1.2
	c1.5,0.4,2.8,1.1,4.1,2c1.2,0.9,2.2,2.1,3,3.6c0.8,1.5,1.1,3.5,1.1,5.9c0,2.2-0.4,4.2-1.3,5.9s-2.1,3.1-3.6,4.3s-3.4,2-5.6,2.6
	c-2.2,0.6-4.6,0.9-7.2,0.9c-1.6,0-3-0.1-4.3-0.3c-1.3-0.2-2.5-0.4-3.4-0.6s-1.8-0.5-2.5-0.8c-0.7-0.3-1.3-0.5-1.7-0.8v-6
	c1.8,0.7,3.6,1.3,5.4,1.7c1.8,0.4,3.7,0.6,5.9,0.6c1.7,0,3.2-0.2,4.6-0.5c1.4-0.3,2.5-0.8,3.5-1.4c1-0.6,1.7-1.3,2.3-2.3
	c0.5-0.9,0.8-2,0.8-3.1c0-1.2-0.2-2.2-0.7-3c-0.5-0.8-1.1-1.5-1.9-2c-0.8-0.5-1.8-0.9-2.8-1.3c-1.1-0.3-2.2-0.6-3.4-0.9
	c-1.5-0.3-3.1-0.7-4.7-1.2s-3-1.1-4.3-1.9c-1.3-0.8-2.3-2-3.1-3.4c-0.8-1.4-1.2-3.3-1.2-5.5c0-2.3,0.4-4.3,1.2-6s1.9-3.1,3.4-4.2
	c1.4-1.1,3-1.9,4.9-2.5c1.9-0.6,3.8-0.8,5.9-0.8c2.4,0,4.7,0.2,6.7,0.7c2.1,0.5,3.9,1,5.6,1.7v6.1c-1.8-0.7-3.6-1.3-5.4-1.7
	c-1.8-0.4-3.7-0.7-5.7-0.7c-1.6,0-3,0.2-4.2,0.5c-1.2,0.3-2.1,0.8-2.9,1.4c-0.7,0.6-1.3,1.3-1.6,2.1
	C1948.8,263.9,1948.7,264.8,1948.7,265.8z M2007.1,293h-0.2c-0.6,0.7-1.3,1.5-2.2,2.2c-0.9,0.7-1.9,1.4-3.1,1.9
	c-1.2,0.6-2.4,1-3.8,1.4s-2.8,0.5-4.4,0.5c-2.1,0-4-0.3-5.8-0.9c-1.8-0.6-3.3-1.5-4.5-2.8c-1.3-1.2-2.3-2.7-3-4.4
	c-0.7-1.7-1.1-3.7-1.1-5.9c0-2.2,0.4-4.1,1.2-5.8c0.8-1.7,1.9-3.2,3.3-4.4c1.4-1.2,3.1-2.1,5.1-2.8c2-0.6,4.2-1,6.5-1
	c2.3,0,4.4,0.2,6.3,0.6c1.9,0.4,3.6,0.8,5.1,1.4h0.2v-3c0-1.2-0.1-2.3-0.2-3.2c-0.2-0.9-0.4-1.7-0.8-2.4c-0.8-1.5-2.1-2.7-3.8-3.7
	c-1.7-1-4.1-1.4-7.1-1.4c-2.2,0-4.3,0.2-6.2,0.6c-1.9,0.4-3.9,1-5.8,1.7v-6c0.7-0.4,1.6-0.7,2.6-1c1-0.3,2-0.6,3.1-0.8
	c1.1-0.2,2.3-0.4,3.5-0.5c1.2-0.1,2.4-0.2,3.7-0.2c4.4,0,8,0.8,10.8,2.3s4.8,3.6,6,6.2c0.5,1,0.8,2.1,1,3.2s0.3,2.5,0.3,3.9v29.1h-6
	L2007.1,293z M2006.8,278.6c-1.3-0.4-2.9-0.7-4.7-1.1c-1.8-0.3-3.8-0.5-5.9-0.6c-3,0-5.4,0.6-7.1,1.9s-2.6,3.3-2.6,5.9
	c0,1.3,0.2,2.5,0.6,3.5c0.4,1,1,1.8,1.8,2.5c0.7,0.7,1.6,1.1,2.7,1.5c1,0.3,2.1,0.5,3.3,0.5c1.5,0,2.9-0.2,4.3-0.7
	c1.3-0.4,2.5-1,3.5-1.6c1-0.6,1.9-1.2,2.6-1.8c0.7-0.6,1.2-1.1,1.6-1.4V278.6z M2050.7,297.9c-0.6,0.2-1.5,0.5-2.8,0.7
	c-1.3,0.2-2.8,0.3-4.5,0.4c-2.3,0-4.3-0.3-6-0.8s-3.1-1.4-4.2-2.4c-1.1-1.1-2-2.3-2.5-3.8c-0.6-1.5-0.8-3.2-0.8-5v-26.5h-8.4v-6.1
	h8.4v-11.9h7.1v11.9h13v6.1h-13v25.4c0,1,0.1,1.9,0.4,2.8c0.3,0.9,0.8,1.6,1.4,2.2c0.6,0.6,1.4,1.1,2.4,1.5c1,0.4,2.2,0.5,3.5,0.5
	c0.9,0,2-0.1,3-0.2c1.1-0.2,2-0.4,2.9-0.6V297.9z M2060.6,244v-7.9h7.1v7.9H2060.6z M2060.8,297.8v-43.6h7.1v43.6H2060.8z M2121,276
	c0,3.4-0.5,6.6-1.5,9.4c-1,2.8-2.4,5.2-4.2,7.2c-1.8,2-4,3.6-6.5,4.7c-2.5,1.1-5.4,1.7-8.5,1.7c-3.2,0-6.1-0.6-8.7-1.7
	c-2.6-1.1-4.7-2.7-6.5-4.7c-1.8-2-3.2-4.4-4.1-7.2c-0.9-2.8-1.4-5.9-1.4-9.4c0-3.5,0.5-6.6,1.5-9.4c1-2.8,2.4-5.2,4.2-7.3
	c1.8-2,4-3.6,6.5-4.7c2.6-1.1,5.4-1.7,8.6-1.7c3.2,0,6.1,0.6,8.7,1.7c2.6,1.1,4.7,2.7,6.5,4.7c1.8,2,3.1,4.4,4.1,7.3
	S2121,272.6,2121,276z M2113.6,276c0-2.7-0.3-5.1-1-7.2c-0.7-2.1-1.6-3.9-2.8-5.3c-1.2-1.5-2.6-2.6-4.2-3.3
	c-1.6-0.8-3.4-1.1-5.3-1.1s-3.7,0.4-5.3,1.1c-1.6,0.8-3,1.9-4.2,3.3c-1.2,1.5-2.1,3.2-2.8,5.3s-1,4.5-1,7.2c0,2.7,0.3,5,1,7.1
	s1.6,3.9,2.8,5.3c1.2,1.4,2.6,2.5,4.2,3.3c1.6,0.8,3.4,1.1,5.3,1.1s3.7-0.4,5.3-1.1c1.6-0.8,3-1.8,4.2-3.3s2.1-3.2,2.8-5.3
	C2113.3,281.1,2113.6,278.7,2113.6,276z M2139.2,260.2h0.1c0.8-1,1.7-2,2.6-2.8c1-0.9,2-1.6,3.2-2.3c1.2-0.7,2.5-1.2,3.9-1.5
	s3-0.6,4.7-0.6c2,0,3.9,0.3,5.6,0.8s3.3,1.4,4.5,2.7s2.3,2.8,3.1,4.8c0.8,2,1.1,4.4,1.1,7.3v29.2h-7.1v-28.1c0-3.8-0.7-6.5-2.2-8.1
	s-3.6-2.5-6.4-2.5c-2.4,0-4.8,0.7-7.1,2c-2.3,1.4-4.3,3.2-5.9,5.6v31h-7.1v-43.6h5.5L2139.2,260.2z M694.9,87.6
	c-0.8,1.7-2.8,0.3-3.8,0c-2.8-0.8-5.6-1.5-8.3-2.6c-3.1-1.3-6-2.2-9.7-3.2s-7.5-2.6-11.7-3.6c-2-0.5-3.7-1.2-5.7-1.8
	c-2-0.7-4.1-0.9-6.3-1.4c-4-1-16.1-4.3-18-4.9c-4-1.1-8.3-1.6-12.7-2.6c-4.1-1-21.4-3.9-25.7-4.8c-4.5-1-23.3-2.7-28.1-2.4
	c-4.8,0.2-9.4,0.2-13.9,0.8s-19.6,2-35.7,9.1C508.8,73,497,81.4,492.7,87c-2.8,3.7-5.7,8.2-4.6,14.6c0.7,3.9,1.6,5.1,4,8.1
	c4.1,4.9,8.9,8.7,15.3,11.8c13.6,6.5,28.5,6.8,30,6.9c12.1,0.6,32.3-3.1,36.9-3.7c5.5-0.7,34.1-7.9,38.4-8.9
	c29.9-6.8,43.8-4.7,46.8-4.5c19.9,1.2,43.1,12.6,45.4,13.6c3,1.3,15.2,7.7,18.2,9.3c6,3.2,19.7,11,26.7,14.4
	c9.3,4.4,24.4,9.1,36.4,10.7c8.3,1.1,7.2,0.5,15.7,0.8c16.5,0.6,38-0.5,55.2-2.3c4.2-0.4,11.7-1.1,15.9-1.4
	c8.3-0.6,11.2-0.7,18.8-0.9c-1.2,2.4-4.3,1.7-6.5,2c-2.3,0.3-4.8,0.9-7.1,1.2c-4.8,0.7-9.7,1.5-14.6,2.2
	c-14.4,2.3-29.2,4.3-44.1,6.1c-5.1,0.6-16.2,1.8-21.5,2c-10.6,0.3-15.2,0.4-25.2-1.6c-2.3-0.4-11.1-3-13.1-3.6
	c-10.7-3.6-24.1-11.3-25.5-12.1c-2.4-1.4-20.3-10.6-32.5-16.4c-3.7-1.8-18.7-7.8-34.6-9.5c-25.3-2.7-54.2,1-57.2,1.4
	c-8.2,1.1-44.7,6.8-54.4,8.1c-4,0.5-8.3,0.6-12.3,1c-5.3,0.6-23,0.2-25.7-0.2c-1.7-0.2-7-0.9-15.6-5.1c-7.8-3.8-23.3-14.3-24.9-29.3
	c-2.8-27.1,27.7-37.7,33.1-40c29.2-12.4,64-7.8,67.7-7.5c1.8,0.1,19.3,2.3,23.4,3.2c7.5,1.7,15.1,3.8,22.6,5.9
	c2.7,0.8,5.3,1.8,8.3,2.6c6.8,1.8,13.9,4.6,20.8,6.5c1.5,0.4,7.2,2.7,8.7,3.2c1.6,0.6,3.3,0.9,5.1,1.4c3.2,0.9,6.4,2.1,9.5,3.2
	C681.4,81.8,693.8,86.1,694.9,87.6L694.9,87.6z M324.6,138.3c0.4,0.1,2.8,1.3,3.2,1.6c1,0.6,5.2,3.5,6.1,4c2.7,1.9,5.9,5.3,7.9,8.1
	c0.3,0.4,3.5,4.8,4,6.5c0.7,1.9,0.8,3.7,1.2,5.3c1,3.8,1,6.2,0.2,10.3c-0.8,4-1.7,6.7-3.6,9.7c-2.7,4.1-5.9,7.7-10.3,10.5
	s-8,4.8-13.3,6.1c-0.9,0.2-7.9,2.1-19.8-1.6c-4.3-1.3-7.8-3.7-10.5-6.7c-0.7-0.8-3.1-3.7-5.8-10.4c-0.7-1.8-1.4-5.1-1.7-7.2
	c-0.9-6.9,0.2-14.3,2.8-19.6c0.5-0.9,1.1-1.9,1.6-2.8c1.9-3.5,4.3-6.3,7.3-9.1c0.9-0.8,2.3-1.9,3.4-2.6c3.6-2.4,6-3.3,12.3-3.6
	C309.8,136.7,315.6,135.9,324.6,138.3L324.6,138.3z M339.3,182.6c0.5-0.6,0.9-1.2,1.5-2.2c0.5-0.9,1.2-2.4,1.5-3.3
	c0.7-1.7,0.9-2.6,1.3-4.6c0.1-0.9,0.3-2.3,0.3-3.1c0.3-3.7-0.6-6.2-1.6-8.7c-1.2-3-2-4.1-3.6-6.5c-3.2-4.8-6.8-8-12.1-10.3
	c-1.8-0.8-3.8-1.6-5.5-2c-3.5-0.9-8.6-0.9-11.5-0.4c-4.4,0.7-9.1,2.3-12.3,4.9c-6.6,5.3-9.4,15.1-9.5,16.6c-0.2,2.1-0.1,4.7,0.2,7.1
	c0.5,4.7,1.8,7.6,3.6,10.7c2.4,3.9,4.1,4.8,7.7,7.7c1.3,1,4.9,3.3,5.3,3.4c0.9,0.4,5.5,2,6.5,2.2c2.3,0.4,5.7,0.4,8.1,0
	C320.2,193.9,330.6,193.6,339.3,182.6L339.3,182.6z M201.9,143c0.4,0,0.4,0.2,0.8,0.2C202.8,143.5,201.6,143.5,201.9,143L201.9,143z
	 M311.1,147.2c3-0.2,7.9,0.8,9.7,2.2c0.7,0.5,11.3,5.5,9.4,18.1c-0.2,1.5-0.9,4-1.5,5.6c-0.3,0.7-2.8,4.8-4.2,6.2
	c-2,1.9-4.5,3.9-10.7,4.5c-9.8,0.9-16.9-7.4-18.2-10.3c-5.9-13.3,2.8-20.5,4.9-22.4C303.5,148.4,307.9,147.5,311.1,147.2
	L311.1,147.2z M319.7,156.9c-0.3-2.3-3.9-4.8-6.3-4.6c-1.7,0.1-4.1,1.8-4.6,3.2c-1.3,3.6,1,6.8,3.2,7.9
	C317.2,164.3,320.3,160.8,319.7,156.9L319.7,156.9z M984.1,191.6c-3,0.7-5.7,0.6-9.7,0.4c-4.7-0.2-10-0.2-15.2-0.6
	c-7.1-0.5-85.5-4.2-121.9,10.2c-26.9,10.7-52.7,20-54.5,20.5c-3.7,1.1-13.5,4-17.4,4.6c-4,0.7-11.7,2.2-16,2.4
	c-8.4,0.4-12.3,0.3-17.4-0.6c-6-1-18.2-6.2-19.6-6.9c-23.4-10.8-48.4-25-53-27.7c-4.5-2.7-48.1-23.8-50.9-25.1
	c-8.7-3.6-17.7-12-64.1-15.8c-3.2-0.3-6.2,0.1-9.9,0c-3.1-0.1-5.9,0.5-9.1,0.6c-0.7,0-1.8,0.7-2.2-0.4c-0.2-1.7,1.8-1.3,2.6-1.4
	c3.1-0.5,6.6-1.1,10.3-1.4c4.9-0.5,10-1,14.6-1c28.3,0.1,46.9,6.8,47.7,7.1c1.3,0.4,9,3.5,11.9,4.4c4,1.2,47.4,22.6,48.9,23.4
	c4.1,2.2,22,11.8,23.9,12.7c1.7,0.9,21.4,9.5,27,11.1c2.4,0.7,24.7,11.2,60.9,3.1c10.6-2.4,61.3-18.5,68.9-20.1
	c2.5-0.5,12.5-3,15-3.4c4.6-0.8,9.3-1.6,14.3-2c0.6-0.1,13-1.1,19-1.2c1.5,0,12.5,0.2,16.6,0.2c8.1,0,44.8,2.5,46.5,2.6
	c8,0.6,16.2,1.3,24,2.2c1.5,0.2,3.1,0.4,4.7,0.6C981.3,190.5,983.2,190.2,984.1,191.6L984.1,191.6z M177.9,168.6
	c-1.2,1.1-3.1,3.3-5.1,1.8c-1.8,1.2-2.2,3.4-4,4.6c-0.7,0.5-1.5,0.5-2.2,1c-0.4,0.3-1.6,1.3-2,1.8c-1.3,1.9-0.6,4.7-2.6,6.7
	c-1.1,0.1-1.6-0.4-2.2-0.8c0.8-3.1-2-3.8-3.6-5.1c0.3-1.3-0.5-2.5-0.6-3.8c-0.1-2.6,1.1-4.6,3.2-5.5c0.2-1.2-0.1-2.9,1-3.2
	c-0.4-0.7-1-1.2-1.2-2c0.3-1.3,0.5-2.5,0.2-3.8c-0.2-0.9-0.9-1.4-1-2.2c-0.2-1.5,0.4-2.9,0.6-4.4c1.8-0.6,3.8,0.9,6.1,0.8
	c0.8,0,1.6-0.4,2.4-0.4c0.8,0,1.8,0.5,3,0.6c3.3,0.3,5.8-0.4,7.1,1.8c0.4-0.5,0.3-0.2,1-0.2c1.2,0.3,1.6,1,2.4,2
	c0.6,0.8,1.5,1.6,1.4,3.2c-0.1,0.9-0.8,2.3-1.4,2.8c-0.5,0.4-1.4,0.4-1.8,1C177.7,166.5,178.1,167.4,177.9,168.6L177.9,168.6z
	 M183.7,173.3c-0.3,1.9,2,3.3,2,4.9c0,1-1.1,1.7-2.2,2.6c-1.1,0.9-1.9,1.7-3,1.6c-1.5-0.1-1.9-1.3-2.8-2.6c-1.6-0.6-3.2-1.3-4.2-2.4
	c0-0.6,0.7-1.5,1.4-1.6s0.9,0.4,1.6,0.6c0.4,0.1,0.6-0.2,1-0.2c1.2,0.1,2.5,0.9,3.2,0c-0.1-1.1-1.6-0.9-1.6-2.2
	C179.6,172.3,182.3,173,183.7,173.3L183.7,173.3z M646.6,226c-0.2,1.4-1.9,0.5-2.4,0.4c-10.9-2.1-24.2-7.9-25.7-8.5
	c-1.4-0.6-27-11.4-29.9-12.5s-16.5-5.6-18.2-6.1c-6.1-1.7-12.3-3.8-19-5.1c-6.8-1.3-14.1-2.3-21.6-2.6c-15.1-0.7-32.2-1.5-45.5,1.6
	c-1.6,0.4-15.3,3-26.1,8.9c-5.3,2.9-9,5.7-11.1,11.7c-1.4,4.1-1.1,7.5,1.2,11.1c0.8,1.2,4.3,6.5,11.7,8.3c12.9,3.1,24.4,1,44.9-2.8
	c15.2-2.8,35.2-5.3,37.3-5.5c24.1-2.9,39.3,0.9,43.2,2.1c2,0.6,8,3.4,9.8,4.2c6.7,3.2,16,9.8,22.5,13.8c6.3,3.9,28.1,19.2,34.8,22.7
	c14,7.3,49.7,17.8,81.7,12.4c16.6-2.8,38.9-7.5,40.4-7.9c14.9-3.2,58-13.4,61.1-14.2c1.5-0.4,13.4-3.2,15.6-3.8
	c1.9-0.6,4.1-1.9,6.3-0.4c-0.8,1.4-2.7,1.7-4,2.2c-1.6,0.6-3.2,0.9-4.9,1.4c-1.5,0.5-7.7,2.5-9.3,3c-3.1,1-22.6,6.4-24.5,6.9
	c-3.2,0.8-6.5,2.1-9.9,2.8c-1.7,0.4-18.8,5.5-20.4,6.1c-1.8,0.6-3.5,0.9-5.3,1.4c-10.4,3-21.5,5.4-32.1,8.3
	c-3.5,1-18.5,3.7-22.6,4.2c-5,0.6-21.3,3-44.2-1.4c-40.5-7.7-64.9-32.8-81.7-41.8c-10.4-5.6-12.4-8.7-28.1-11.5
	c-7.6-1.4-14.7-1.1-23-1.1c-1,0-11.8,1.1-14.2,1.3c-4.7,0.4-31.8,4.2-34.2,4.6c-2.8,0.5-9.5,1.4-9.9,1.4c-13,1.9-25.4,0.6-32.7-2
	c-11.5-4.1-14.1-10.3-15.2-12.1c-2.1-3.6-3.1-9.4-1.5-14.6c1.5-4.7,5.1-9.2,6.3-10.4c18.2-18.5,48.7-20.8,55.6-21.4
	c23.9-1.9,41.8,2.8,44.1,3.4c23,6.4,42.6,15.5,43.3,15.8c3,1,24.1,11.3,26.1,12.3c0.5,0.3,9.4,4.5,10.5,4.9c3.1,1,13.3,5,15.6,5.7
	C643.3,224,646.5,223.9,646.6,226L646.6,226z M186.4,191.9c-0.5-1.1-1.4-1.7-2.2-2.4c-0.2-1.4,0.6-1.8,1.4-2.2
	c-0.8-4.9,6.5-1.2,5.5,1.6c-0.2,0.5-0.9,0.5-1.6,1.2C188.5,190.9,188.2,192,186.4,191.9L186.4,191.9z M110.6,201.2
	c0.4,1.5-0.7,1.6-1,2.4c-2.1,0-2.8,0.1-4.6-0.6c0.3-1.5,2.1-0.5,3-0.6C109.1,202.2,109.7,201.5,110.6,201.2L110.6,201.2z
	 M99.4,204.8c-0.9,0.5-1.7,0.1-2-0.6C97.7,203,100,202.8,99.4,204.8L99.4,204.8z M241.5,211.9c0.8,0.8,0.6,2.2,0,3
	c-0.6-0.2-1-0.7-2-0.6C239.9,213.2,239.6,211.5,241.5,211.9L241.5,211.9z M241.1,214.9c0,0.6,0.6,0.6,0.4,1.4
	c-0.2,0.1-0.3,0.4-0.4,0.6c-1.1,0.1-1.9-0.3-2.2-1C238.7,214.6,240.2,214.5,241.1,214.9L241.1,214.9z M219.1,220.6
	c0,1.2-0.7,1.6-0.8,2.6c-2.4,0.4-4.5-1.1-5.7-2.6c0.5-1.8-0.6-4.1,0.8-5.1c1.9,0.8,3.3,2.1,4.2,3.8
	C217.8,220.1,219,219.8,219.1,220.6L219.1,220.6z M96.4,247.7c0.5,0.5,1.2,0.6,1.8,1c-1,1.6-5.2,2-6.9,1c0.3-1.7-0.7-2.1-1.6-2.6
	c0-0.3,0-0.7,0-1c0.9-0.5,2,0,3,0c1-0.2,1.6-1.3,2.8-0.6C96,246.1,96.5,246.5,96.4,247.7L96.4,247.7z M103.5,250.3
	c0,0.5,0,0.9,0,1.4c-1.6,0.9-4.6,0.4-4.4-1.8C100.2,249.2,102.5,249.6,103.5,250.3L103.5,250.3z M113.6,259.2
	c-0.5,0.1-0.5,0.6-0.8,0.8c-2.1-0.2-2.6-2.2-4.6-2.4c-0.4-0.9-1.5-2-0.8-3.2C111.4,253.1,112.9,256.3,113.6,259.2L113.6,259.2z
	 M190.2,180.6c1,0.2,1.2,1.2,2.4,0.6c0.8,0.8,1.5,1.8,1.8,3c0.9,0.6,2.3,0.7,2.2,2.2c3.4-0.4,6.4,1.8,6.3,4.4c0,1.2-1.4,1.7-1.2,3
	c-4.2-0.5-4.1,5.2-9.1,4c-0.6-1.1-0.3-3,0.4-3.8c-0.3-0.7-1.1-0.9-1.2-1.8c0.8-1.4,0.1-2.7,0.6-3.8c-1.2-2.1-1.9-4.8-2.8-7.1
	C189.9,181.2,189.8,180.7,190.2,180.6L190.2,180.6z M956.8,125.6c-2.8-1-12.9-1.1-14.4-1.2c-1.4-0.1-26.2-2.9-39.2-3.8
	c-35.5-2.6-83.8-11.3-99.6-15.4c-8.1-2.1-42-12.7-47.3-14.8c-6.8-2.6-37.4-14.7-40.6-16.2c-3.3-1.6-92.3-39.1-118.7-41.1
	c-5.8-0.4-26.4-4.5-49.1-3.2C511.4,32,481.6,43.2,477,44.7c-4.8,1.6-41.2,16.9-43.7,18.4c-6.2,2.5-41.1,19.3-73.4,30.7
	c-6.2,2.2-16.3,4.9-31.7,7.9c-22.9,4.4-52.8,1-57,0.6c-3.5-0.3-20.5-2.3-26.1-2.8c-6.8-0.6-14.6-1.4-21.8-2
	c-7.7-0.7-30-0.9-33.5-0.6c-10.3,0.8-30.4,0.9-57.6,9.9c-15.6,5.2-50.1,16.9-54.8,19c-5.1,2.3-18.7,7.5-29.1,13.5
	c-5.7,3.3-11.4,6.7-16.6,10.7c-1.7,1.4-9.9,7.7-13.7,13.5c-1.2,1.8-4.6,5.9-5.7,13.1c-0.9,5.4,1.1,11.1,2.9,15
	c0.9,1.9,2.4,3.7,3.6,5.5c3.6,5.3,8.4,9.4,13.9,12.7c4.8,2.1,9.9,3.1,11.5,3.3c4.1,0.4,6.4,0.2,10.5-0.4c1.9-0.3,3.9-0.9,5.7-1.6
	c5.1-2,10.4-4.3,14.4-7.3c2.2-2.8,4.5-5.5,6.9-8.1c-0.1-0.5-0.4-1.2,0-1.6c1.2-1.3,2.3-2.7,2.6-4.9c1.1-0.9,2.2-2,2.4-3.2
	c0.3-1.6-0.8-3-0.2-5.1c0.2-0.6,1.7-2.9,2.4-3.4c1.4-1.1,3.1-1,4.2-1.8c0.7-0.5,2.6-2.3,3-3.2c0.4-1,0.2-2.2,0.6-3
	c0.7-1.6,2.2-2.3,3.4-3.2c1.3-1,2.3-2.5,4-2.6c0.5-0.5,0.9-1.1,1.4-1.6c1.3-0.2,1.8-1.1,3-1.4c1.3-2.3,2.8-4.3,5.5-5.3
	c0.9-0.5,1.2-1.5,2-1.8c1.5-0.6,3.1-0.3,4.2-0.6c0.5-0.2,1.1-0.6,1.6-0.8c1.2-0.5,1.9-0.5,2.8-1.4c0.3-0.3,0.7-0.7,0.8-0.8
	c1-1.4,0.8-2.3,2.2-3.2c0.5-0.3,1-0.4,2.2-0.2c1.6-0.7,2.6-1.9,4-2.6c2.4,0.3,3.4-0.6,5.5-0.6c1.3-1,3-1.5,5.1-2.2
	c0.6-0.2,1.4-0.7,2-0.8c1.5-0.4,3.1-0.3,4.4-0.8c0.9-0.3,1.4-0.9,2.8-1c1.2-0.1,2.3,0.4,3.4,0.4c1.8,0,6.2-1.2,6.7,0.6
	c0.5,1.9-1.6,1.2-1.8,2.6c-0.4,2.3,6,4.2,1.6,6.3c0.8,0.3,0.7,0.3,0.6,1.4c-1.3,2.9-7.1,1.5-9.5,0.4c-2.2,1.7-5.2,2.6-5.5,6.3
	c-1.7,0-2.9,1.4-4.2,1.2c-1.6-0.2-1.4-1.9-2.6-2.8c-1.2-0.2-1,1-1.8,1.2c-1.2-0.9-2.2,0.7-3.4,0.8c-1.5,0.1-1.4-0.7-2.8-1.2
	c-0.9,0.3-0.9,1.5-1.6,2c-1.9-0.3-2.2,1-3,1.8c-3.6,0.3-5.3,2.5-7.9,3.8c-0.3,1.2-1,2.8-0.4,4.2c1.3,1.7,4.3,0.9,6.3,1.2
	c2.2,1.6,1,6.5-1.2,7.3c0.2,1.6-1.2,1.6-1.4,2.8c1.8,0.3,1.9-2.8,3.8-3c0.4-0.3-0.1-1.6,0.6-1.6c1.1-0.7,1.8,0.5,3,0.2
	c0.3-0.9-1.1,0-0.8-0.8c0.1-1.6,3.3-1.6,4-3.2c0.8-3.5-2.1-3.3-1.8-6.3c1.4-1.1,3.4-1.6,3.8-3.6c0.7-0.3,1.3-0.3,2-0.6
	c0.9-0.4,1.5-1.2,2.4-1.4c1.8-0.4,5.5,0.4,7.1,1c0.3,0.3-0.2,1.2,0,2c-1.8-0.2-5,0.4-4.4,2.2c0.2,0.9,1.3,0.9,2.6,1
	c-0.9,2.7,1.6,5.6-0.2,7.7c-0.8,0.9-2.3,0.6-3,1.8c0.9,2-0.3,2.6-1.2,3.8c-0.1,0.8,0.8,1.4,0.2,2c-0.8,1.3-3.1,0.7-3.2,2.2
	c-0.1,1.2,1.1,1.2,1.8,2.2c1.2-0.7,3.4-0.4,4,0.6c0.9-0.7,1.1-1.7,2-1.8c1.5-0.2,2.3,1.5,4,2.2s3-0.1,3.8,1.2c0.8,1.4-1,1.9-1.6,2.6
	c-0.4,1.6,1,1.9,0.6,2.8c-1.7,0.7-3.3-0.4-4.9-0.2c-1.6,0.2-1.8,1.5-3.2,2c-0.5-0.3-0.6-1.4-1.6-1.6c-0.8-0.2-1.7,0.3-2.8,0.4
	c-1.9,0.1-4.7-0.7-4.6,1c0,1.1,1.1,0.7,1.8,1c0.8,0.3,1.4,0.6,2,0.8c0.2,1-0.6,1-0.6,1.8c0.1,1.2,0.7,2,0,3
	c-1.2,0.7-2.9,0.4-4.9,0.4c-1.3,0-2.5-0.4-3.8,0c-1.4,0.4-3.7,2-4.9,0c0.2,0.4-0.2-0.8-0.2-0.4c-0.1-2.6,4.9-2.7,5.9-4.6
	c-0.5-0.6-1.1,0.5-1.8,0.4c-0.9-0.1-1.3-0.9-2.2-1c-1.3-0.2-3.8,0.6-5.1,1c-1.8,0.7-4,1.6-4.6,3.2c1.3,1.1,3.2,0.3,4.4,1
	c1,0.6,0.7,1.6,1.6,2.2c1,0.2,2.1-0.2,3.2,0.2c0.4,1.3-0.5,2-0.4,2.8c0.2,1.5,1.8,1.9,1.8,3.6c-3.6-0.2-4.4,2.5-6.5,3.8
	c-1.1,0.2-1.2-0.5-2.2-0.4c-1,0.4-3.4,2.3-4.2,0.4c0.2-1.5,3-0.4,2.8-2.2c-0.1-1-1,0.1-1.8-0.2c0.6-0.6,0.2-2.1,0.6-2.8
	c0.4-0.8,2.5,0.9,2.4-1c-0.4-0.6-1.8-0.8-2.4-0.6c-0.9,0.2-1.5,1-2.2,1.4c0.3,1.8-0.7,2.7-1.4,3.8c-0.4,0.6-0.3,1.3-0.6,1.8
	c-0.3,0.5-0.7,0.5-1,1c-0.6,1-0.7,2.2-0.8,3.8c-0.6,0.4-0.9,1.1-1.4,1.6c-3,0.1-6.6,0.2-7.5,2.8c0.3,1,0.1,2.6,0.4,3.6
	c-1.8,2-3.9,3.9-4.9,6.3c-1,2.5,1.8,5.7,1,9.5c-0.7,1.4-1.7,3.7-3.8,2.2c-1.1-0.7-0.8-2.1-1.2-4c-0.2-1.1-1.2-2.4-1.4-3.4
	c-0.1-0.7,0-2.2,0.2-2.8c0.2-0.9,1.1-1.5,1.2-2.2c0.3-1.9-0.6-3-0.8-3.8c-2.4-0.4-4.6-0.8-6.3,0.2c-1.5,0.9-1.3,2.7-2.6,3.6
	c-1.4,0.3-2.3-0.8-3.4-1.2c-0.3-0.1-0.9-0.1-1.2-0.2c-1.4-0.8-2.1-2.5-3.8-1c-0.8,0.7-1.3,1.1-2.6,1.6c0.1,2.3-1.5,3.1-1.8,5.1
	c-0.2,1-0.1,4.6,0.2,6.1c0.3,1.7,1.7,3.1,1.6,4.4c0,1.5-1.3,2.2-1.8,3.2c0.7,2.6,4.3,3.4,5.9,1c1-0.3,2.4-0.3,3-1
	c-0.8-3,1.1-4.4,3.4-4.9c0.3,0.5,1.8,1,0.8,1.6c1.7,0.7,2,1.3,1.4,3.6c-0.2,0.6-0.3,1.4-0.4,1.8c-0.4,0.9-1,1.1-1,2s0.7,1.6,1,2.8
	c0.3,1.1,0.1,2.4,0.2,3.4c0.2,1.1,0.6,1.9,0.4,3c-0.5,3-2.5,5.8-0.8,9.1c0.9,0.5,1.9-0.3,2.6,0.4c0.2,1.6,0,2.9,0.8,4.4
	c0.3,0.5,0.8,0.8,1,1.4c0.4,1,0.1,1.7,0.4,2.2c0.4,0.6,1.9,1.5,2.8,1.2c1.3-0.4,1-2.3,2.2-3c-1.3-0.4-0.9-2.6-0.6-3.6
	c0.7-0.2,1.4-0.3,1.8-0.2c1.2,0.3,0.2,2,1.6,2c0.7-0.4,0.4-1.7,0.4-2.4c0-0.9-0.3-2.1-0.4-2.8c-0.3-1.5-1.2-2.7-1-3.6
	c0.3-1.1,1.7-1.3,2.8-2c0.6-0.8,0.6-2.1,1.6-2.4c2.2,0.8,4.4,1.5,4.6,4.2c0.7-0.6,0.1-2,1-2.6c2.3,0.2,4.1,0.7,5.3,2.2
	c0.9,1.2,0.9,2.8,1.4,4.4c0.9,2.9,2.9,4.7,4,6.7c1.7,0.9,3,2.1,4.6,3c4.1-0.3,5.7,3.2,7.5,5.9c1.4,2.1,2.8,3,2.2,6.7
	c6.2-0.6,7.8,2.7,10.7,5.7c2.5,0.9,4.6,2.3,6.9,3.4c2.3-0.2,4.1,0.9,6.1,1c0.5,0,1.1-0.3,1.6-0.2c2.1,0.3,3.9,2.1,6.5,1.6
	c0.8,0.4,1.4,1,2,1.6c0.7,0.6,1.5,1.1,1.6,2c0.3,3.1-5.2,3.2-4.9,7.5c0.1,1,0.9,2,0.8,2.8c-0.1,1.5-1.4,2-2.2,3.2
	c-0.4,0.9-0.7,2-1.2,2.8c-2.2,1.3-6.6,2.1-8.9,0.2c-0.6,1-1.3,1.9-2.6,2.2c0.8,2,3.2,2.3,3.2,5.1c2,1.4,4.7,0.8,7.3,1.2
	c0.9,0.1,1.6,0.6,2.4,0.8c2.9,0.6,5.3-1,8.1-0.8c1.1-1.3,3.9-2,6.1-2.6c2.2-0.6,4.9-1.4,7.7-1.2c0.8,0.1,1.4,0.5,2.2,0.6
	c1.1,0.1,2.6-0.1,3.6-0.2c1.6-0.2,3.4-0.3,4.6-0.8c0.9-0.3,1.7-0.8,2.6-1.2c0.8-0.4,1.6-0.9,2.4-1.2c0.5-0.2,1.1,0,1.6-0.2
	c1-0.4,2.2-1.6,3.6-1.6c0.3-0.9,1.5-0.8,1.8-1.6c1.7-0.2,2.2-1.6,4-1.6c2-1.6,4.3-2.9,6.7-4.2c1-1.2,2-3.5,4.6-3.6
	c1.3-2.3,2.8-4.5,4.9-6.1c1.4-0.3,2.2-0.1,2.8-1c-0.2-1.2-0.9-2.1-0.8-3.2c0.2-2.3,3-3.8,4.2-5.9c0.4-0.7,0.6-1.5,1-2.2
	c0.9-1.7,2.4-3.7,1.4-6.5c-3,0-5.2-0.8-6.9-2.2c-2.4,0-3.1,2.2-4.6,3.2c-0.4,0.3-1.2,0.3-1.8,0.6c-1.2,0.5-3.4,1.6-5.1,1.8
	c-1.7,0.2-3.2-0.7-5.1-0.8c-1.1-0.1-2.1,0.4-3.2,0.2c-1.8-0.3-3.6-2.3-6.1-1.8c-0.6-1-1-2.3-1-3.8c-1.2-2-4.3-1.6-4.9-3.4
	c-0.4-1.4,0.6-2.8,1.2-3.8c0.5-0.8,1.6-1.6,1.4-2.4c-0.2-1.2-1.8-0.7-2.2-1.2c-0.1-0.8-0.4-1.3-0.6-2c-1.4-1.3-3-2.6-2.6-5.9
	c0.1-1.2,0.9-3,1.4-3.8c1.2-1.8,3.2-2.5,3.8-4.2c0.4-1.2,0-2.2,0.4-3.4c0.3-1,1.5-1.5,1.6-2.4c0.5-2.9-2.4-4.7-0.6-7.5
	c0.3-0.5,0.9-0.8,1.2-1.4c0.3-0.6,0.5-1.5,0.8-2.2c0.7-1.6,2-5,3-6.1c1.2-1.2,3.8-2.3,5.5-1.4c0.3,0.1,0.9-0.2,0.2,0.4
	c1.8,0.1,2.1-1.2,4-1c0.7-0.5,1.4-0.7,2.2-1.2c1.6-1.1,3-3.5,4.4-3.6c1.7-0.2,2.9,1.3,4,2.6c2.2,0,2.5,1.9,4.6,2
	c-0.1,0.7-0.5,1.5,0.2,1.8c1.5,0.1,1.1-1.6,2-2c1.5-0.5,1.9,1,2.8,0.4c1.1-0.2,0.3-2.4,0.8-3.2c1.2-0.5,3,0,3.6-1.4
	c-0.4-2.4-0.6-5,1.4-5.9c-0.3-3.7,3.1-3.8,5.1-5.3c1-1.9,1.2-4.6,2.4-6.3c-1-1-1.3-2.6-2-3.8c-0.1-0.7,0.3-0.9,0.2-1.6
	c-1.1-1.3-0.4-4.4-3-4c0.4,1.6-0.9,2.9-1.8,4.2c-1.4,0.1-2.6,0.5-3.6,0.2c-1.2-0.4-1.7-2.6-3.6-1.8c-0.7,0.9,0.1,1.3,0,2.6
	c0.6,0.5,1.7,0.6,2.2,1.2c0.3,1.4,0.2,2.1-0.2,3.2c-0.4,1.2-1.4,1.6-1.2,2.6c0.2,1.3,1.9,0.9,2,2c-1,1.2-2.6,2.3-4.6,1.6
	c-0.9-0.3-1.8-2.3-2.8-3.2c-2.9-2.4-6.4-3.5-6.7-7.7c-0.4-0.8-1.5-0.8-2.4-1c0.4-0.9,1-1.5,0.8-3c-1.3-0.5-2.2,1.1-3.8,1
	c0.1,0.8-0.4,1.1-0.4,1.8c0.5,0.4,0.7,1.1,1.6,1.2c-1.2,3.2,2,3.5,2,6.1c2,2.2,6.4,2.1,7.1,5.7c-1.4,0.1-1.7-1.7-3-1
	c-0.8,1.2,0.2,3.9-1.6,4.6c-0.1,1.2,0.7,1.5,0.6,2.6c-1.3,0.1-1.2-1.2-2.2-1.4c-1.4,0.3-1.6,0.4-3,0c1-1.2,2.4-1.2,3.8-1.6
	c0.1-2.6-0.9-4.2-3.2-4.4c-0.6-1-1.6-1.6-2.2-2.6c-0.5-0.1-0.9-0.3-1.6-0.2c-0.8-2.2-3.7-2.4-5.1-4c-2.1,0.8-4,0.9-3.4,3.8
	c0.2,1.3,1.6,1.2,1.8,2.2c0.3,1.2-0.4,1.5-0.8,2.6c-0.3,0.9-0.3,1.5,0.2,2.8c0,1.1-1.4,0.8-1.4,1.8c-0.1,1.7,0.3,2.7,0,4
	c-3.2,1.2-3.8,5-6.5,6.7c-1.2,0.1-1.4-1.5-2.2-2.2c-0.6-0.6-2.1-1-3-1.8c-1.3-1.1-2.2-2.4-3.2-2.6c-1.6-0.3-2.7,0.7-4.4,1
	c-1.2-1-0.6-2.3-0.4-3.4c0.2-1,0.3-2.5,0.8-3.6c0.4-1,2-2.1,2-3.2c0-0.8-0.6-0.9-0.8-1.6c-0.1-0.4-0.3-1.4-0.4-2
	c-0.5-2.5,0.4-3.5,1.8-4.9c0.7-0.7,1.7-1.8,2.8-1.8c0.9,0,2.4,1.6,3.8,1.2c0.8-0.2,1.4-1.1,1.4-2.2c-0.1-2.1-4.1-4.6-2.6-8.1
	c0.2-0.6,1.5-1.4,2-1.8c1.1-0.9,1.9-2.1,3.8-2c1.2-2.3,1.4-5.5,3.4-6.9c0-1-0.9-2-0.4-2.8c-0.6-0.8-1.3-1.5-1.2-3
	c1.4-1,2.5-0.8,3.8,0.6c0.6,0.6,0.8,1.6,1.4,2.2c0.8,0.8,1.6,0.7,2.2,1.4c0.7-0.1,0.3,1.1,0.6,1.4c2.1-1.1,3.6-2.8,6.5-3
	c1.1-2.4,2.8-4.2,4-6.5c-0.1-1.9-2-1.4-2.2-2.8c-0.2-1.3,2.2-2.7,2.4-4.6c0.1-1.2-0.4-1.7-0.6-3.2c-0.4,0.3-1.2-0.2-1.4-0.6
	c-0.8,0.8-2.3,1-3.6,1.6c-0.9,0.4-1.4,1.2-2.2,1.2c-0.9,0.1-1.6-0.5-2.4-0.8c-0.7,0.1-0.3-0.9-0.6-1.2c-1.4,0-1.1-1.6-2.4-1.6
	c-1,0.8,0.6,2.1,0.6,3.2c0.3,0.7,2,0.1,2,1c0.5,1.5-0.6,2.8-1.6,3.4c0.1,0.4,0.7,1.1,0.2,1.4c0.2,0.7,1.3,0.4,1.6,1
	c0.4,1.6,2,2.5,1.6,3.8c-0.4,1.4-2.5,1.4-3.8,2.4c-1.3-0.7-1.7-2.3-2.6-3.4c-1.2-0.2-2-0.8-2.8-0.6c-2,0.5-0.9,2.9-1.6,4.6
	c-2,0.1-4.8-0.6-5.5-2.2c-0.3-0.8,0.3-2.2-0.2-3.2c-0.5-1.2-1.8-1.5-2.4-2.4c-0.4-0.6-0.8-1.5-0.8-2.2c0-0.9,1-2.2,0.8-3.2
	c-0.1-0.9-0.9-1.1-1.4-1.8c-0.6-0.8-0.6-1.6-1.2-2c-0.7-1.6,0.3-3.8,0-5.1c-0.3-1.1-1.3-1.1-1.8-2c-0.5-3.5,1.8-4.2,2.6-6.5
	c1.4,0.1,2.4-0.7,2.6-1.2c0.2-0.4,0.2-0.6,0.4-0.8c0.9-0.9,1.2-0.2,1.6-1.4c0.1-0.4,0.1-0.8,0.4-1c-0.5-3.2-4.8-2.6-6.1-5.1
	c1.9,0,3.3-0.5,4.9-0.4c2.7,0.3,4.8,2.1,7.5,1.6c0.7-0.6-0.3-1.8,1.2-1.2c-3.3-1.5-9.1-0.8-12.3-2.4c-1.1,0.1-1.2,1-2.2,1.2
	c-0.9,0-1.2-0.6-2.2-0.4c-1.2,0.5-1.4,1.9-2.4,2.6c-1.6,0-2.4-0.3-3,0.8c0.5,2.4,3.1,2.6,3.4,5.3c-1.5,2.1-3.4-0.1-5.3-0.4
	c-1.5-0.2-3.5,0.4-5.3,0.4c-1.2,0-2.5-0.3-3.6-0.4c-1.1-0.1-2.5,0.4-3.2-0.6c-0.6-3.5,4.1-3.3,5.3-5.7c-0.6-4.1-6.1-2.2-8.7-4.2
	c-0.4-1.9,0.8-2.2,2-2.4c0.8-1.8,2.3-2.3,5.1-2.2c3.6,0.1,9.2-1.2,9.7,1.6c0.3,1.3-0.6,2.2-2,2.4c1.2,0.5,1.9,2.1,3.4,2.2
	c1.4,0.2,2.5-0.8,3.8-1.2c-0.5-1.3-1.7-1.5-1.4-2.8c0.3-1.5,2.7-1,3.4-2.2c2.1-0.8,3.6,0.4,5.5,0.8c1.1,0.2,2.3,0,3.2,0.2
	c1.1,0.2,2.1,1.1,3.2,1.4c1.4,0.3,2.2,0.3,3.4,0.6c3.5,1,6.8,2.7,10.1,4c2.5,1,5.1,1.5,6.7,2.4c1.3,0.8,2.3,2,3.4,2.8
	c4.8,1.5,7.6,5.1,12.1,6.9c4.8,4.6,9,8.4,13.1,13.5c1.3,1.6,3,3,4,4.6c0.4,0.6,0.4,1.4,0.8,2c0.4,0.7,1.1,1.2,1.6,1.8
	c0.5,0.7,0.7,1.5,1.2,2.2c1.2,1.8,2.6,3,3.6,5.3c2.5,5.1,5.6,11,7.7,16.8c0.8,2.2,1.5,4.4,2.2,6.7c1.5,4.5,2.4,9.5,3.4,14.4
	c1.1,5.1,2.2,10.3,2.4,15.2c0.4,9.2-2.2,17-1.2,26.1c0.4,4,4.1,8.8,7.1,10.7c2,1.3,4.1,1.6,6.5,1.9c5.1,0.7,9.1-1.7,21.8-1.8
	c11.9-0.1,53.6,17.4,69.2,18.9c4.9,0.5,9.3,1.1,15,0.8c6.3-0.3,13.6-1.9,19.3-3.8c22.5-7.4,46.8-15.1,48.5-15.6
	c2.9-0.9,4.4-1.3,7.5-2.1c4.8-1.3,14-2.5,20.6-2.3c4.7,0.1,11.3,1.4,13.4,2c1.4,0.4,12.1,4.3,18.1,7.7c12.1,6.8,26.5,14.6,33.4,18
	c17.4,8.7,43.8,18.7,65.3,23.4c13.6,3,31,3.4,42,2.7c12.4-0.8,29.3-3.7,30.2-3.9c41.3-8.8,77.9-19.8,81.1-20.8
	c6.9-2.1,28.5-7.3,47.8-9.5c9.7-1.1,14.3-1.7,22.6-1.7c6.2,0,5.2,0.1,11.1,0.1c1,0,10.7,0.7,12.1,0.8c2.4,0.2,8.4,1.1,9,1.2
	c1.6,0.2,7.7,1.5,4,1.8c-1.5,0.5-6.6-0.5-7.9-0.6c-2.6-0.3-8.2-0.7-11.6-0.7c-6.5,0-23.8,1.4-38.5,4.2c-9,1.7-18,3.2-27.3,6.1
	c-13.1,4.1-28.6,9.4-48.8,15.6c-3,0.9-40.4,13.5-62.6,17.7c-5.8,1.1-19.6,2.4-31.2,1.6c-6.6-0.4-23.8-3.4-28.1-4.5
	c-34.2-8.4-69.1-24.3-95.4-36.1c-3.1-1.4-6.1-3.1-9.3-4.4c-5.5-2.2-10.3-4.9-18.9-7.6c-3.6-1.1-12.6-4.8-24.7-3.5
	c-2.2,0.2-9.2,0-47.1,12.4c-4.3,1.4-18.3,7.4-33.7,10.4c-7.3,1.4-16.7-0.1-18.5-0.6c-11.3-2.7-39.1-12.7-43.8-14
	c-4.8-1.4-11.1-3.6-16.3-4.5c-4-0.7-8.9-0.2-13.7-0.1c-10.2,0.3-28.2,2.6-48.1,19.2c-5.3,4.4-11.4,11.4-22.2,19.9
	c-10.4,8.1-21.6,14.1-25.5,15.5c-5.7,2.1-12.9,4-20.8,5.1c-29.5,4.4-57-8.9-58.8-9.8c-3.6-1.7-7.2-3.4-10.5-5.5
	c-5.7-3.6-21.7-17.4-23.2-19.4c-0.2-0.2-21-25-23.8-29.1c-3.8-5.4-22.1-23.9-26.7-28.7c-4.4-4.7-9.1-9.3-13.3-14.6
	c-4.1-5.1-8.5-9.9-12.3-15.4c-5.8-8.3-11.8-15.7-16-25.7c-2.1-4.9-4.6-10.1-4.6-17.2c-0.1-9.8,3.8-15.2,5-16.8
	c5.9-8.4,6-7.2,9.6-10.7c4.8-4.7,17.5-11.7,18.6-12.3c2.2-1.3,15.9-8.3,20.4-10.5c14-6.9,36-15.1,38.4-16c1.3-0.5,16.4-5.9,23-7.9
	c9-2.7,18.4-5.6,27.9-8.3c3-0.9,18.5-4.3,19.2-4.4c13.8-2.6,27.6-2.9,34-2.8c11.6,0.1,15.8,0.6,38.2,3.2c4.9,0.6,29.5,4,37.4,4.8
	c2.4,0.3,19.7,2.1,38.9,1.1c17-0.8,36.3-9.4,37.1-9.7c6.2-2.5,51.5-23.6,57-26.2c14.5-6.9,57.1-25.6,74.6-32.9
	c4.4-1.8,22.7-7.7,29.4-9.2c8.4-2,34.2-6.7,55.3-6.3c15.4,0.3,26.1,2.4,35.1,4.4c37.5,8.2,75.4,26.4,77.7,27.4
	c4.7,2,39.8,17.5,41,18c35.8,15.4,85.3,34.9,156.4,47.5c0.7,0.1,52.3,8.4,60.2,9.5c6.1,0.9,11.9,1.5,18.2,2.4
	C953.8,123.5,956.6,123.5,956.8,125.6L956.8,125.6z M240.5,186.2c-1.3,0.6-2.3,0.6-3.6,0.2c-1.4,1.3-2.1,2.7-1.8,4.6
	c0.1,0.8,0.9,1.5,1,2.2c0.1,1.1-0.4,1.9-0.6,2.8c0.5,0.5,1.3,0.7,1.6,1.4c0,1.2,1.2,1.8,1.6,2.8c0.4,0.8,0.1,2.3,1.2,2.6
	c0-1.9,1.2-2.6,2-3.6c1.2,0.3,1.4-0.5,2.2-0.6c2.8,1.1,3.9-2,3.8-3.8c1.6-0.1,2.1,0,3.2-0.6c-0.4-0.8-0.8-1.2-0.2-2
	c-1.9-0.8-1.5-2.8-2.2-4.9c-0.9-0.3-1.3,0-2.2-0.4c-0.8,0.1-0.9,1-1.6,1.2c-0.9-0.3-1.3-1-1.8-1.6c0.4,0,0.4-0.5,0.4-1
	c-1.8,0.4-0.9-1.9-1.4-2.8C240.6,182.9,240.5,184.5,240.5,186.2L240.5,186.2z M103.9,187c1.6,0.2,4.7,0.1,4.6-2
	C107.2,183.8,103.3,185.1,103.9,187L103.9,187z M109.7,192.9c0.5,2-1.1,1.9-1.2,3.2c1.8,0.5,2.9-1.4,4.2-2c0-2.3,0.1-3.7,0.8-4.9
	c-0.6-0.5-0.8-1.3-1.2-2c-0.3,0-0.7,0-1,0c-0.6,1.2-2.4,1.2-3.2,2.2c0.2,0.6,1.2,0.4,2,0.4 M99.8,196.3c-0.8,0.7-1.1,1.9-2,2.4
	c-0.9,0-1.5,0.4-2.2,0.6c-0.4,1-0.2,1.4-0.6,2.4c0.7,0.3,1.3-0.1,2.2,0.2c1.1-1,2.2-2,3.8-2.4c0.8,0.5-0.2,1.1,0.2,1.6
	c1.9,0.9,1.6-2,2.8-2.4c-1.4-2.9,2.1-3.7,2-6.5C103.1,191.2,102.9,196.1,99.8,196.3L99.8,196.3z M109.5,203.6c0.3-0.9,1.4-0.9,1-2.4
	c-0.9,0.3-1.4,1-2.6,1.2c-0.9,0.1-2.7-0.9-3,0.6 M97.4,204.2c0.3,0.7,1.2,1.1,2,0.6C100,202.8,97.7,203,97.4,204.2L97.4,204.2z
	 M246.2,227.9c-0.8,0.1-1.1-0.4-2-0.2c0.1,1.3,0.7,2.1,0.8,3.4c1.5-0.5,2.5,0.1,2.8,1.2c1.8-0.5,2.4,0.5,3.6,1
	c-0.4,2.2,0.9,2.6,2,3.2c0.1,1.2,0.8,1.7,1.2,2.6c1.9,0.2,3.3,0.9,5.1,1.2c0.8,1.3,1.5,2.6,2,4.2c0.3,0.4,1.4-0.1,1.4,0.6
	c0.4,2.6,0.1,4.8,1.8,6.3c-0.3,1.6,0.9,1.8,1.6,2.4c-0.1,2,0.9,2.9,2,3.6c0.8-1.3-0.8-4.5,0.6-5.9c-0.7-1.2-0.2-2.3,0-3.6
	c-0.9-1.1-0.5-3.4-1.6-4.2c-0.4,0-0.8,0-1.2,0c-1-1.6-1.9-3.3-2.6-5.3c-1.1-0.4-1.7-1.2-2.6-1.8c0-0.3,0-0.5,0-0.8
	c-0.4-0.4-1-0.5-1.4-0.8c-0.4-1.5-2.4-1.5-2.8-3c-1.9,0-2.5-1-4-0.4c-2.3-1-3.1-3.5-5.5-4.4c0.1-0.5-0.1-0.9-0.6-0.8
	C246.4,226.9,247.1,227.6,246.2,227.9L246.2,227.9z M1134.3,121.1c0,9.3-1.2,18-3.5,26.2c-2.3,8.2-5.8,15.5-10.4,22.1
	c-4.6,6.5-10.4,12.2-17.4,17c-6.9,4.8-15.1,8.4-24.3,11.1c-5.3,1.5-11.1,2.6-17.3,3.2c-6.2,0.6-12.9,0.9-20.1,0.9h-36V42.2h36.4
	c7.2,0,13.9,0.3,20.1,0.9c6.2,0.6,11.9,1.6,17.3,3.2c9.3,2.6,17.4,6.3,24.3,10.9c6.9,4.7,12.7,10.2,17.3,16.6
	c4.6,6.4,8,13.6,10.2,21.5C1133.1,103.3,1134.3,111.9,1134.3,121.1z M1115,121.1c0-15.3-3.4-27.7-10.1-37.2
	c-6.8-9.5-16.4-16.3-29.1-20.2c-4.8-1.5-10.2-2.5-16.2-3.1c-5.9-0.6-12.7-0.8-20.1-0.8h-14.8v124.2h14.8c7.5,0,14.2-0.3,20.1-0.8
	c5.9-0.6,11.3-1.6,16.2-3.1c12.6-4,22.3-10.9,29.1-20.8C1111.6,149.3,1115,136.6,1115,121.1z M1188.2,183.9h81.6v17.5h-101V42.2
	h96.6v17.5h-77.2v51.4h68.6v17.5h-68.6V183.9z M1322.5,183.9h81.6v17.5h-101V42.2h96.6v17.5h-77.2v51.4h68.6v17.5h-68.6V183.9z
	 M1456.8,201.4h-19.4V42.2h44.1c6.6,0,12.7,0.4,18.2,1.2c5.6,0.8,10.7,2,15.4,3.7c9.5,3.4,16.7,8.5,21.6,15.3s7.4,15.1,7.4,25
	c0,8.1-1.6,15.2-4.8,21.4c-3.2,6.1-7.9,11.3-14,15.4c-6.1,4.1-13.5,7.2-22.3,9.3c-8.8,2.1-18.7,3.2-29.8,3.2
	c-5.3,0-10.8-0.2-16.5-0.7V201.4z M1456.8,118.3c2.6,0.3,5.4,0.6,8.2,0.7c2.9,0.2,5.6,0.2,8.1,0.2c9.1,0,16.9-0.7,23.3-2.1
	s11.7-3.5,15.7-6.2c4-2.7,7-6.1,8.8-10c1.8-3.9,2.7-8.4,2.7-13.4c0-6.2-1.5-11.3-4.5-15.2c-3-4-7.2-7-12.7-9
	c-3.4-1.3-7.3-2.2-11.8-2.7c-4.4-0.5-9.6-0.8-15.5-0.8h-22.5V118.3z M1662.9,68.5c-1.3,7.3-4.2,20.1-8.9,38.3l-24.7,94.6h-19.7
	l-48.8-159.2h19.4l27.4,93.4c4.4,15,8.1,28.5,11.1,40.5h0.5c1.6-7.4,3.3-14.6,5.1-21.5c1.9-7,3.5-13.2,4.9-18.7l24.1-93.6h19.4
	l24,93.6c5.9,22.5,9.2,35.9,10,40.2h0.5c2.7-11.1,6.5-24.6,11.1-40.5l27.4-93.4h19.4l-48.8,159.2h-19.7l-24.6-94.6
	c-4.5-17.6-7.4-30.4-8.9-38.3H1662.9z M1765.1,201.4l64.8-159.2h16.8l64.8,159.2h-21.1l-19-47.9h-66.6l-19,47.9H1765.1z M1838.1,67
	c-7.1,19.8-13.9,37.8-20.3,54l-6,15h52.8l-6-15c-6.5-16.5-13.2-34.5-20-54H1838.1z M1976.5,176.7c5.8-17.4,11.9-34.9,18.6-52.6
	l30.6-81.9h19.4l-60.4,159.2h-16.9l-60.4-159.2h19.4l30.6,81.9c6.7,17.7,12.9,35.2,18.7,52.6H1976.5z M2090.1,183.9h81.6v17.5h-101
	V42.2h96.6v17.5h-77.2v51.4h68.6v17.5h-68.6V183.9z"/>
</svg>
